# xmcd
#
# Track frame offsets: 
#        150
#        16491
#        36588
#        50047
#        75192
#        89881
#        115938
#        136711
#        157335
#        169368
#        184015
#        211314
#
# Disc length: 3149 seconds
#
# Revision: 0
# Processed by: cddbd v1.5.2PL0 Copyright (c) Steve Scherf et al.
# Submitted via: ExactAudioCopy v0.99pb3
#
DISCID=a90c4b0c
DTITLE=William Purvis and The Seventh Sons - Got To Get Up
DYEAR=2001
DGENRE=Blues
TTITLE0=Glad to Know You're Still Around
TTITLE1=And She Won't Come back
TTITLE2=Lyin's Gonna Getcha In Trouble
TTITLE3=In Need
TTITLE4=Got To Get Up
TTITLE5=You Don't Have To Let Down Easy
TTITLE6=Tried My Luck At Love
TTITLE7=I Feel Your Pain
TTITLE8=It's Really For The Best
TTITLE9=You're Got To Love Me Better
TTITLE10=Fool's Paradise
TTITLE11=I Ain't Goin' Nowhere
EXTD=
EXTT0=
EXTT1=
EXTT2=
EXTT3=
EXTT4=
EXTT5=
EXTT6=
EXTT7=
EXTT8=
EXTT9=
EXTT10=
EXTT11=
PLAYORDER=
